<mxfile host="Electron" modified="2024-04-16T12:58:12.713Z" agent="Mozilla/5.0 (X11; Linux x86_64) AppleWebKit/537.36 (KHTML, like Gecko) draw.io/24.1.0 Chrome/120.0.6099.109 Electron/28.1.0 Safari/537.36" etag="4i9hEr03aCU2fctGY4yV" version="24.1.0" type="device" pages="2">
  <diagram id="55V_DXtCxBXNwQ4ffcyh" name="hardware">
    <mxGraphModel dx="1434" dy="843" grid="1" gridSize="10" guides="1" tooltips="1" connect="1" arrows="1" fold="1" page="0" pageScale="1" pageWidth="850" pageHeight="1100" math="0" shadow="0">
      <root>
        <mxCell id="0" />
        <mxCell id="1" parent="0" />
        <mxCell id="6fQZ-OaEm7x_k8r983UE-1" value="" style="rounded=0;whiteSpace=wrap;html=1;fillColor=#CDEB8B;verticalAlign=top;strokeColor=none;" parent="1" vertex="1">
          <mxGeometry x="310" y="480" width="50" height="20" as="geometry" />
        </mxCell>
        <mxCell id="cmXZo5ishBVcqpTrs8ro-1" value="" style="rounded=1;whiteSpace=wrap;html=1;fillColor=#eeeeee;strokeColor=#36393d;" parent="1" vertex="1">
          <mxGeometry x="130" y="260" width="340" height="180" as="geometry" />
        </mxCell>
        <mxCell id="cmXZo5ishBVcqpTrs8ro-2" value="" style="endArrow=none;html=1;startArrow=circle;startFill=1;" parent="1" edge="1">
          <mxGeometry width="50" height="50" relative="1" as="geometry">
            <mxPoint x="310" y="365" as="sourcePoint" />
            <mxPoint x="310" y="300" as="targetPoint" />
          </mxGeometry>
        </mxCell>
        <mxCell id="cmXZo5ishBVcqpTrs8ro-3" value="&lt;font style=&quot;font-size: 14px&quot;&gt;Temperature &lt;br&gt;Sensors&lt;/font&gt;" style="edgeLabel;html=1;align=center;verticalAlign=middle;resizable=0;points=[];labelBackgroundColor=none;" parent="cmXZo5ishBVcqpTrs8ro-2" vertex="1" connectable="0">
          <mxGeometry x="0.5143" y="2" relative="1" as="geometry">
            <mxPoint x="22" y="-35.86" as="offset" />
          </mxGeometry>
        </mxCell>
        <mxCell id="cmXZo5ishBVcqpTrs8ro-4" value="" style="verticalLabelPosition=bottom;outlineConnect=0;align=center;dashed=0;html=1;verticalAlign=top;shape=mxgraph.pid2misc.fan;fanType=common;fillColor=#ffcc99;strokeColor=#36393d;" parent="1" vertex="1">
          <mxGeometry x="220" y="325" width="50" height="50" as="geometry" />
        </mxCell>
        <mxCell id="cmXZo5ishBVcqpTrs8ro-5" value="" style="shape=mxgraph.pid.heat_exchangers.heat_exchanger_(coil_tubes);html=1;align=center;verticalLabelPosition=bottom;verticalAlign=top;dashed=0;rotation=90;fillColor=#ffcccc;strokeColor=#36393d;" parent="1" vertex="1">
          <mxGeometry x="130" y="335" width="100" height="30" as="geometry" />
        </mxCell>
        <mxCell id="cmXZo5ishBVcqpTrs8ro-6" value="&lt;font style=&quot;font-size: 14px&quot;&gt;Heatbed&lt;/font&gt;" style="text;html=1;strokeColor=none;fillColor=none;align=center;verticalAlign=middle;whiteSpace=wrap;rounded=0;" parent="1" vertex="1">
          <mxGeometry x="160" y="270" width="40" height="20" as="geometry" />
        </mxCell>
        <mxCell id="cmXZo5ishBVcqpTrs8ro-7" value="&lt;font style=&quot;font-size: 14px&quot;&gt;Content&lt;/font&gt;" style="ellipse;shape=cloud;whiteSpace=wrap;html=1;fillColor=#ffff88;strokeColor=#36393d;" parent="1" vertex="1">
          <mxGeometry x="360" y="300" width="94" height="70" as="geometry" />
        </mxCell>
        <mxCell id="cmXZo5ishBVcqpTrs8ro-8" style="edgeStyle=orthogonalEdgeStyle;rounded=0;orthogonalLoop=1;jettySize=auto;html=1;entryX=1.02;entryY=0.467;entryDx=0;entryDy=0;entryPerimeter=0;" parent="1" source="cmXZo5ishBVcqpTrs8ro-11" target="cmXZo5ishBVcqpTrs8ro-5" edge="1">
          <mxGeometry relative="1" as="geometry" />
        </mxCell>
        <mxCell id="cmXZo5ishBVcqpTrs8ro-9" style="edgeStyle=orthogonalEdgeStyle;rounded=0;orthogonalLoop=1;jettySize=auto;html=1;" parent="1" source="cmXZo5ishBVcqpTrs8ro-11" target="cmXZo5ishBVcqpTrs8ro-4" edge="1">
          <mxGeometry relative="1" as="geometry" />
        </mxCell>
        <mxCell id="cmXZo5ishBVcqpTrs8ro-10" style="edgeStyle=orthogonalEdgeStyle;rounded=0;orthogonalLoop=1;jettySize=auto;html=1;startArrow=none;startFill=0;" parent="1" source="cmXZo5ishBVcqpTrs8ro-11" edge="1">
          <mxGeometry relative="1" as="geometry">
            <mxPoint x="510" y="385" as="targetPoint" />
            <Array as="points">
              <mxPoint x="510" y="491" />
            </Array>
          </mxGeometry>
        </mxCell>
        <mxCell id="cmXZo5ishBVcqpTrs8ro-11" value="" style="pointerEvents=1;shadow=0;dashed=0;html=1;strokeColor=#36393d;fillColor=#CDEB8B;aspect=fixed;labelPosition=center;verticalLabelPosition=bottom;verticalAlign=top;align=center;outlineConnect=0;shape=mxgraph.vvd.scsi_controller;" parent="1" vertex="1">
          <mxGeometry x="310" y="480" width="50" height="22.5" as="geometry" />
        </mxCell>
        <mxCell id="cmXZo5ishBVcqpTrs8ro-12" value="&lt;font style=&quot;font-size: 14px&quot;&gt;Fan&lt;/font&gt;" style="edgeLabel;html=1;align=center;verticalAlign=middle;resizable=0;points=[];labelBackgroundColor=none;" parent="1" vertex="1" connectable="0">
          <mxGeometry x="240" y="335" as="geometry">
            <mxPoint x="7.5" y="-37" as="offset" />
          </mxGeometry>
        </mxCell>
        <mxCell id="cmXZo5ishBVcqpTrs8ro-13" value="" style="endArrow=none;html=1;startArrow=circle;startFill=1;" parent="1" edge="1">
          <mxGeometry width="50" height="50" relative="1" as="geometry">
            <mxPoint x="510" y="385" as="sourcePoint" />
            <mxPoint x="510" y="315" as="targetPoint" />
          </mxGeometry>
        </mxCell>
        <mxCell id="cmXZo5ishBVcqpTrs8ro-14" value="&lt;font style=&quot;font-size: 14px&quot;&gt;Temperature &lt;br&gt;Sensor&lt;/font&gt;" style="edgeLabel;html=1;align=center;verticalAlign=middle;resizable=0;points=[];" parent="cmXZo5ishBVcqpTrs8ro-13" vertex="1" connectable="0">
          <mxGeometry x="0.5143" y="2" relative="1" as="geometry">
            <mxPoint x="7.5" y="-37" as="offset" />
          </mxGeometry>
        </mxCell>
        <mxCell id="cmXZo5ishBVcqpTrs8ro-15" value="&lt;font style=&quot;font-size: 14px&quot;&gt;Insulated Container&lt;/font&gt;" style="text;html=1;strokeColor=none;fillColor=none;align=center;verticalAlign=middle;whiteSpace=wrap;rounded=0;" parent="1" vertex="1">
          <mxGeometry x="280" y="230" width="40" height="20" as="geometry" />
        </mxCell>
        <mxCell id="cmXZo5ishBVcqpTrs8ro-16" value="&lt;font style=&quot;font-size: 14px&quot;&gt;Controller&lt;/font&gt;" style="text;html=1;strokeColor=none;fillColor=none;align=center;verticalAlign=middle;whiteSpace=wrap;rounded=0;" parent="1" vertex="1">
          <mxGeometry x="315" y="502.5" width="40" height="20" as="geometry" />
        </mxCell>
        <mxCell id="cmXZo5ishBVcqpTrs8ro-17" value="" style="endArrow=none;html=1;startArrow=circle;startFill=1;" parent="1" edge="1">
          <mxGeometry width="50" height="50" relative="1" as="geometry">
            <mxPoint x="350" y="365" as="sourcePoint" />
            <mxPoint x="350" y="300" as="targetPoint" />
          </mxGeometry>
        </mxCell>
        <mxCell id="cmXZo5ishBVcqpTrs8ro-18" value="" style="endArrow=classic;html=1;" parent="1" edge="1">
          <mxGeometry width="50" height="50" relative="1" as="geometry">
            <mxPoint x="330" y="420" as="sourcePoint" />
            <mxPoint x="350" y="360" as="targetPoint" />
            <Array as="points">
              <mxPoint x="350" y="420" />
            </Array>
          </mxGeometry>
        </mxCell>
        <mxCell id="cmXZo5ishBVcqpTrs8ro-19" value="" style="endArrow=classic;html=1;" parent="1" edge="1">
          <mxGeometry width="50" height="50" relative="1" as="geometry">
            <mxPoint x="330" y="420" as="sourcePoint" />
            <mxPoint x="310" y="360" as="targetPoint" />
            <Array as="points">
              <mxPoint x="340" y="420" />
              <mxPoint x="310" y="420" />
            </Array>
          </mxGeometry>
        </mxCell>
        <mxCell id="cmXZo5ishBVcqpTrs8ro-20" value="" style="endArrow=none;html=1;" parent="1" edge="1">
          <mxGeometry width="50" height="50" relative="1" as="geometry">
            <mxPoint x="330" y="480" as="sourcePoint" />
            <mxPoint x="330" y="420" as="targetPoint" />
          </mxGeometry>
        </mxCell>
      </root>
    </mxGraphModel>
  </diagram>
  <diagram id="NSiw6Sy641fGmACUMlT3" name="block">
    <mxGraphModel dx="1434" dy="843" grid="1" gridSize="10" guides="1" tooltips="1" connect="1" arrows="1" fold="1" page="1" pageScale="1" pageWidth="850" pageHeight="1100" math="0" shadow="0">
      <root>
        <mxCell id="0" />
        <mxCell id="1" parent="0" />
        <mxCell id="0oKtaF6193G30KMT_4te-1" value="" style="verticalLabelPosition=bottom;verticalAlign=top;html=1;shape=mxgraph.basic.polygon;polyCoords=[[0.29,0.24],[1,0.24],[1,0.41],[1,1],[0.7,1],[0,1],[0,0.75],[0,0.45],[0,0.31],[0,0.14],[0,0],[0.29,0]];polyline=0;fillColor=none;dashed=1;strokeColor=#666666;fontColor=#333333;strokeWidth=2;" parent="1" vertex="1">
          <mxGeometry x="100" y="70" width="380" height="280" as="geometry" />
        </mxCell>
        <mxCell id="0oKtaF6193G30KMT_4te-2" style="edgeStyle=orthogonalEdgeStyle;rounded=0;orthogonalLoop=1;jettySize=auto;html=1;fillColor=#dae8fc;strokeColor=#6c8ebf;strokeWidth=2;endArrow=none;endFill=0;" parent="1" source="0oKtaF6193G30KMT_4te-3" target="0oKtaF6193G30KMT_4te-5" edge="1">
          <mxGeometry relative="1" as="geometry">
            <mxPoint x="230" y="170" as="targetPoint" />
            <Array as="points">
              <mxPoint x="150" y="170" />
            </Array>
          </mxGeometry>
        </mxCell>
        <mxCell id="0oKtaF6193G30KMT_4te-3" value="Air Volume" style="rounded=0;whiteSpace=wrap;html=1;fillColor=#ffff88;strokeColor=#36393d;" parent="1" vertex="1">
          <mxGeometry x="110" y="200" width="80" height="40" as="geometry" />
        </mxCell>
        <mxCell id="0oKtaF6193G30KMT_4te-4" style="edgeStyle=orthogonalEdgeStyle;rounded=0;orthogonalLoop=1;jettySize=auto;html=1;fillColor=#f8cecc;strokeColor=#b85450;strokeWidth=2;endArrow=blockThin;endFill=1;" parent="1" source="0oKtaF6193G30KMT_4te-5" target="0oKtaF6193G30KMT_4te-7" edge="1">
          <mxGeometry relative="1" as="geometry" />
        </mxCell>
        <mxCell id="0oKtaF6193G30KMT_4te-5" value="Temperature Sensors" style="rounded=0;whiteSpace=wrap;html=1;fillColor=#BDBDBD;strokeColor=#36393d;" parent="1" vertex="1">
          <mxGeometry x="230" y="150" width="80" height="40" as="geometry" />
        </mxCell>
        <mxCell id="0oKtaF6193G30KMT_4te-6" style="edgeStyle=orthogonalEdgeStyle;rounded=0;orthogonalLoop=1;jettySize=auto;html=1;fillColor=#f8cecc;strokeColor=#b85450;strokeWidth=2;endArrow=blockThin;endFill=1;" parent="1" source="0oKtaF6193G30KMT_4te-7" target="0oKtaF6193G30KMT_4te-9" edge="1">
          <mxGeometry relative="1" as="geometry">
            <Array as="points">
              <mxPoint x="450" y="170" />
              <mxPoint x="450" y="220" />
            </Array>
          </mxGeometry>
        </mxCell>
        <mxCell id="0oKtaF6193G30KMT_4te-7" value="Controller" style="rounded=0;whiteSpace=wrap;html=1;fillColor=#cdeb8b;strokeColor=#36393d;" parent="1" vertex="1">
          <mxGeometry x="350" y="150" width="80" height="40" as="geometry" />
        </mxCell>
        <mxCell id="0oKtaF6193G30KMT_4te-8" style="edgeStyle=orthogonalEdgeStyle;rounded=0;orthogonalLoop=1;jettySize=auto;html=1;endArrow=none;strokeColor=#6c8ebf;endFill=0;fillColor=#dae8fc;strokeWidth=2;" parent="1" source="0oKtaF6193G30KMT_4te-9" target="0oKtaF6193G30KMT_4te-3" edge="1">
          <mxGeometry relative="1" as="geometry" />
        </mxCell>
        <mxCell id="0oKtaF6193G30KMT_4te-9" value="Heater" style="rounded=0;whiteSpace=wrap;html=1;fillColor=#ffcccc;strokeColor=#36393d;" parent="1" vertex="1">
          <mxGeometry x="230" y="200" width="80" height="40" as="geometry" />
        </mxCell>
        <mxCell id="0oKtaF6193G30KMT_4te-10" style="edgeStyle=orthogonalEdgeStyle;rounded=0;orthogonalLoop=1;jettySize=auto;html=1;endArrow=none;strokeColor=#6c8ebf;endFill=0;fillColor=#dae8fc;strokeWidth=2;" parent="1" source="0oKtaF6193G30KMT_4te-11" target="0oKtaF6193G30KMT_4te-3" edge="1">
          <mxGeometry relative="1" as="geometry" />
        </mxCell>
        <mxCell id="0oKtaF6193G30KMT_4te-11" value="Fan" style="rounded=0;whiteSpace=wrap;html=1;fillColor=#ffcc99;strokeColor=#36393d;" parent="1" vertex="1">
          <mxGeometry x="230" y="292.5" width="80" height="40" as="geometry" />
        </mxCell>
        <mxCell id="0oKtaF6193G30KMT_4te-12" style="edgeStyle=orthogonalEdgeStyle;rounded=0;orthogonalLoop=1;jettySize=auto;html=1;fillColor=#f8cecc;strokeColor=#b85450;strokeWidth=2;endArrow=blockThin;endFill=1;" parent="1" source="0oKtaF6193G30KMT_4te-7" target="0oKtaF6193G30KMT_4te-11" edge="1">
          <mxGeometry relative="1" as="geometry">
            <Array as="points">
              <mxPoint x="450" y="170" />
              <mxPoint x="450" y="313" />
            </Array>
          </mxGeometry>
        </mxCell>
        <mxCell id="0oKtaF6193G30KMT_4te-13" style="edgeStyle=orthogonalEdgeStyle;rounded=0;orthogonalLoop=1;jettySize=auto;html=1;endArrow=none;strokeColor=#6c8ebf;endFill=0;fillColor=#dae8fc;strokeWidth=2;" parent="1" source="0oKtaF6193G30KMT_4te-14" target="0oKtaF6193G30KMT_4te-3" edge="1">
          <mxGeometry relative="1" as="geometry">
            <Array as="points">
              <mxPoint x="130" y="160" />
              <mxPoint x="130" y="160" />
            </Array>
          </mxGeometry>
        </mxCell>
        <mxCell id="0oKtaF6193G30KMT_4te-14" value="Box Walls &amp;amp; Lid" style="rounded=0;whiteSpace=wrap;html=1;fillColor=#eeeeee;strokeColor=#36393d;" parent="1" vertex="1">
          <mxGeometry x="110" y="90" width="80" height="40" as="geometry" />
        </mxCell>
        <mxCell id="0oKtaF6193G30KMT_4te-15" style="edgeStyle=orthogonalEdgeStyle;rounded=0;orthogonalLoop=1;jettySize=auto;html=1;endArrow=none;endFill=0;fillColor=#dae8fc;strokeColor=#6c8ebf;strokeWidth=2;" parent="1" source="0oKtaF6193G30KMT_4te-17" target="0oKtaF6193G30KMT_4te-14" edge="1">
          <mxGeometry relative="1" as="geometry" />
        </mxCell>
        <mxCell id="0oKtaF6193G30KMT_4te-16" style="edgeStyle=orthogonalEdgeStyle;rounded=0;orthogonalLoop=1;jettySize=auto;html=1;entryX=0.5;entryY=0;entryDx=0;entryDy=0;fillColor=#dae8fc;strokeColor=#6c8ebf;strokeWidth=2;endArrow=none;endFill=0;" parent="1" source="0oKtaF6193G30KMT_4te-17" target="0oKtaF6193G30KMT_4te-5" edge="1">
          <mxGeometry relative="1" as="geometry" />
        </mxCell>
        <mxCell id="0oKtaF6193G30KMT_4te-17" value="Room Air" style="rounded=0;whiteSpace=wrap;html=1;" parent="1" vertex="1">
          <mxGeometry x="230" y="90" width="80" height="40" as="geometry" />
        </mxCell>
        <mxCell id="0oKtaF6193G30KMT_4te-18" style="edgeStyle=orthogonalEdgeStyle;rounded=0;orthogonalLoop=1;jettySize=auto;html=1;endArrow=none;strokeColor=#6c8ebf;endFill=0;fillColor=#dae8fc;strokeWidth=2;" parent="1" source="0oKtaF6193G30KMT_4te-20" target="0oKtaF6193G30KMT_4te-9" edge="1">
          <mxGeometry relative="1" as="geometry" />
        </mxCell>
        <mxCell id="0oKtaF6193G30KMT_4te-19" style="edgeStyle=orthogonalEdgeStyle;rounded=0;orthogonalLoop=1;jettySize=auto;html=1;endArrow=none;strokeColor=#6c8ebf;endFill=0;fillColor=#dae8fc;strokeWidth=2;" parent="1" source="0oKtaF6193G30KMT_4te-20" target="0oKtaF6193G30KMT_4te-11" edge="1">
          <mxGeometry relative="1" as="geometry" />
        </mxCell>
        <mxCell id="0oKtaF6193G30KMT_4te-20" value="Power Supply" style="rounded=0;whiteSpace=wrap;html=1;fillColor=#e1d5e7;strokeColor=#9673a6;" parent="1" vertex="1">
          <mxGeometry x="350" y="250" width="80" height="40" as="geometry" />
        </mxCell>
        <mxCell id="0oKtaF6193G30KMT_4te-21" value="User" style="rounded=0;whiteSpace=wrap;html=1;" parent="1" vertex="1">
          <mxGeometry x="350" y="90" width="80" height="40" as="geometry" />
        </mxCell>
        <mxCell id="0oKtaF6193G30KMT_4te-22" style="edgeStyle=orthogonalEdgeStyle;rounded=0;orthogonalLoop=1;jettySize=auto;html=1;endArrow=none;endFill=0;fillColor=#d5e8d4;strokeColor=#82b366;strokeWidth=2;entryX=0.5;entryY=0;entryDx=0;entryDy=0;exitX=0.5;exitY=0;exitDx=0;exitDy=0;" parent="1" source="0oKtaF6193G30KMT_4te-21" target="0oKtaF6193G30KMT_4te-14" edge="1">
          <mxGeometry relative="1" as="geometry">
            <mxPoint x="240" y="120" as="sourcePoint" />
            <mxPoint x="200" y="120" as="targetPoint" />
            <Array as="points">
              <mxPoint x="390" y="80" />
              <mxPoint x="150" y="80" />
            </Array>
          </mxGeometry>
        </mxCell>
      </root>
    </mxGraphModel>
  </diagram>
</mxfile>
